<svg xmlns="http://www.w3.org/2000/svg" viewBox="5877.21 97 22 22">
  <defs>
    <style>
      .cls-1 {
        fill: #6441a4;
      }
    </style>
  </defs>
  <g id="logo-instagram" transform="translate(5877.21 96.8)">
    <g id="Group_41" data-name="Group 41" transform="translate(8.601 8.773)">
      <g id="Group_40" data-name="Group 40">
        <path id="Path_6" data-name="Path 6" class="cls-1" d="M197.254,197.613a2.391,2.391,0,0,1,3.908,0,2.482,2.482,0,0,1,.454,1.414,2.408,2.408,0,1,1-4.815,0A2.482,2.482,0,0,1,197.254,197.613Z" transform="translate(-196.8 -196.6)"/>
      </g>
    </g>
    <g id="Group_43" data-name="Group 43" transform="translate(5.426 9.803)">
      <g id="Group_42" data-name="Group 42">
        <path id="Path_7" data-name="Path 7" class="cls-1" d="M126.111,220.2a3.435,3.435,0,0,0-.279,1.4,3.751,3.751,0,1,0,7.5,0,3.375,3.375,0,0,0-.279-1.4h2.111v5.6a1.417,1.417,0,0,1-1.378,1.379h-8.409A1.417,1.417,0,0,1,124,225.8v-5.6Z" transform="translate(-124 -220.2)"/>
      </g>
    </g>
    <g id="Group_45" data-name="Group 45" transform="translate(5.775 5.91)">
      <g id="Group_44" data-name="Group 44" transform="translate(0)">
        <path id="Path_8" data-name="Path 8" class="cls-1" d="M319.479,131.017H321.5v2.322h-2.3V131Z" transform="translate(-319.2 -131)"/>
      </g>
    </g>
    <g id="Group_47" data-name="Group 47" transform="translate(0 0.2)">
      <g id="Group_46" data-name="Group 46" transform="translate(0 0)">
        <path id="Path_9" data-name="Path 9" class="cls-1" d="M5.531.2H16.487A5.527,5.527,0,0,1,22,5.717V16.7a5.523,5.523,0,0,1-5.513,5.5H5.513A5.527,5.527,0,0,1,0,16.683V5.717A5.553,5.553,0,0,1,5.531.2ZM4.2,9.786h0v5.622a2.563,2.563,0,0,0,2.6,2.6h8.409a2.563,2.563,0,0,0,2.6-2.6V6.992a2.563,2.563,0,0,0-2.6-2.6H6.8a2.563,2.563,0,0,0-2.6,2.6V9.786Z" transform="translate(0 -0.2)"/>
      </g>
    </g>
  </g>
</svg>
