<svg xmlns="http://www.w3.org/2000/svg" viewBox="5685 97 22 22">
  <defs>
    <style>
      .cls-1 {
        fill: #6441a4;
      }
    </style>
  </defs>
  <g id="logo-share" transform="translate(5684.997 97)">
    <g id="Group_53" data-name="Group 53" transform="translate(0.003)">
      <path id="Path_15" data-name="Path 15" class="cls-1" d="M20.793,1.21A3.973,3.973,0,0,0,17.878,0H4.128A3.974,3.974,0,0,0,1.213,1.21,3.974,3.974,0,0,0,0,4.125v13.75a3.974,3.974,0,0,0,1.21,2.915A3.973,3.973,0,0,0,4.128,22h13.75A4.132,4.132,0,0,0,22,17.875V4.125A3.974,3.974,0,0,0,20.793,1.21ZM19.439,8.894,14.4,13.936a.886.886,0,0,1-.988.2.856.856,0,0,1-.573-.845V11a12.311,12.311,0,0,0-3.208.337,3.767,3.767,0,0,0-1.862,1.081q-1.518,1.7-.888,6.775a.471.471,0,0,1-.458.515.447.447,0,0,1-.358-.172A10.015,10.015,0,0,1,3.67,13.75q0-.86.072-1.583a9.9,9.9,0,0,1,.308-1.6,6.4,6.4,0,0,1,.637-1.561,6.6,6.6,0,0,1,1.1-1.368A6.066,6.066,0,0,1,7.415,6.509a9.93,9.93,0,0,1,2.327-.73A15.752,15.752,0,0,1,12.837,5.5V3.208a.856.856,0,0,1,.573-.845.815.815,0,0,1,.989.2l5.042,5.042a.9.9,0,0,1,0,1.289Z" transform="translate(-0.003)"/>
    </g>
  </g>
</svg>
