<svg xmlns="http://www.w3.org/2000/svg" viewBox="5749 97 22 22">
  <defs>
    <style>
      .cls-1 {
        fill: #6441a4;
      }
    </style>
  </defs>
  <g id="logo-twitter" transform="translate(5749 97)">
    <g id="Group_52" data-name="Group 52">
      <g id="Group_51" data-name="Group 51">
        <g id="Group_50" data-name="Group 50">
          <path id="Path_14" data-name="Path 14" class="cls-1" d="M17.875,0H4.125A4.125,4.125,0,0,0,0,4.125v13.75A4.125,4.125,0,0,0,4.125,22h13.75A4.125,4.125,0,0,0,22,17.875V4.125A4.125,4.125,0,0,0,17.875,0Zm-1.4,8.53.008.351A7.7,7.7,0,0,1,4.624,15.37a5.57,5.57,0,0,0,.646.038,5.434,5.434,0,0,0,3.363-1.159A2.713,2.713,0,0,1,6.1,12.368a2.826,2.826,0,0,0,.51.047,2.708,2.708,0,0,0,.714-.093A2.711,2.711,0,0,1,5.155,9.666V9.632a2.7,2.7,0,0,0,1.226.34,2.712,2.712,0,0,1-.839-3.615,7.686,7.686,0,0,0,5.583,2.83,2.71,2.71,0,0,1,4.616-2.47,5.484,5.484,0,0,0,1.72-.657,2.715,2.715,0,0,1-1.191,1.5,5.429,5.429,0,0,0,1.555-.426A5.474,5.474,0,0,1,16.473,8.53Z"/>
        </g>
      </g>
    </g>
  </g>
</svg>
