<svg xmlns="http://www.w3.org/2000/svg" viewBox="5813 97 22 22">
  <defs>
    <style>
      .cls-1 {
        fill: #6441a4;
      }
    </style>
  </defs>
  <g id="logo-facebook" transform="translate(5807 97)">
    <g id="Group_39" data-name="Group 39" transform="translate(6)">
      <g id="Group_38" data-name="Group 38">
        <path id="Path_5" data-name="Path 5" class="cls-1" d="M19.25,0H2.75A2.753,2.753,0,0,0,0,2.75v16.5A2.753,2.753,0,0,0,2.75,22H11V14.438H8.25V11H11V8.25a4.125,4.125,0,0,1,4.125-4.125h2.75V7.563H16.5c-.759,0-1.375-.072-1.375.688V11h3.438l-1.375,3.438H15.125V22H19.25A2.753,2.753,0,0,0,22,19.25V2.75A2.753,2.753,0,0,0,19.25,0Z"/>
      </g>
    </g>
  </g>
</svg>
