<svg xmlns="http://www.w3.org/2000/svg" viewBox="5884 64.674 15.21 16.593">
  <defs>
    <style>
      .cls-1 {
        fill: #6441a4;
      }
    </style>
  </defs>
  <g id="logo-trash" transform="translate(6002.731 595.674)">
    <g id="Group_49" data-name="Group 49" transform="translate(-118.731 -531)">
      <g id="Group_48" data-name="Group 48" transform="translate(0)">
        <path id="Path_10" data-name="Path 10" class="cls-1" d="M33.382,2.863a.337.337,0,0,0-.248-.1H29.8l-.756-1.8a1.5,1.5,0,0,0-.583-.681A1.526,1.526,0,0,0,27.6,0H24.146a1.525,1.525,0,0,0-.853.281,1.5,1.5,0,0,0-.583.681l-.756,1.8H18.615a.333.333,0,0,0-.346.346V3.8a.333.333,0,0,0,.346.346h1.037V14.432a2.363,2.363,0,0,0,.508,1.529,1.521,1.521,0,0,0,1.221.632h8.988a1.506,1.506,0,0,0,1.221-.653,2.453,2.453,0,0,0,.508-1.55V4.148h1.037a.333.333,0,0,0,.346-.346V3.111A.337.337,0,0,0,33.382,2.863ZM23.984,1.5a.3.3,0,0,1,.184-.119h3.424a.305.305,0,0,1,.184.119l.519,1.264h-4.84Zm6.73,12.888a1.224,1.224,0,0,1-.076.437.974.974,0,0,1-.157.292c-.054.061-.092.092-.113.092H21.38c-.022,0-.059-.03-.113-.092a.969.969,0,0,1-.157-.292,1.228,1.228,0,0,1-.076-.437V4.148h9.679V14.389Z" transform="translate(-18.269 0)"/>
        <path id="Path_11" data-name="Path 11" class="cls-1" d="M128.251,171.363h.691a.333.333,0,0,0,.346-.346v-6.222a.332.332,0,0,0-.346-.346h-.691a.332.332,0,0,0-.346.346v6.222a.333.333,0,0,0,.346.346Z" transform="translate(-123.757 -158.227)"/>
        <path id="Path_12" data-name="Path 12" class="cls-1" d="M201.34,171.363h.691a.333.333,0,0,0,.346-.346v-6.222a.333.333,0,0,0-.346-.346h-.691a.332.332,0,0,0-.346.346v6.222a.333.333,0,0,0,.346.346Z" transform="translate(-194.08 -158.227)"/>
        <path id="Path_13" data-name="Path 13" class="cls-1" d="M274.429,171.363h.691a.332.332,0,0,0,.346-.346v-6.222a.332.332,0,0,0-.346-.346h-.691a.332.332,0,0,0-.346.346v6.222a.332.332,0,0,0,.346.346Z" transform="translate(-264.404 -158.227)"/>
      </g>
    </g>
  </g>
</svg>
