<?xml version="1.0"?>
<svg xmlns="http://www.w3.org/2000/svg" xmlns:xlink="http://www.w3.org/1999/xlink" version="1.1" id="Layer_1" x="0px" y="0px" viewBox="0 0 216.931 216.931" style="enable-background:new 0 0 216.931 216.931;" xml:space="preserve" width="512px" height="512px" class=""><g><g>
	<g>
		<path d="M150.973,12.333c-5.621,0-11.206,0.709-16.595,2.107c-1.068,0.276-1.978,0.967-2.533,1.922l-24.009,41.35    c-0.614,1.056-0.727,2.329-0.31,3.477s1.32,2.053,2.468,2.472l17.397,6.326l-17.193,22.351c-0.923,1.201-1.116,2.809-0.5,4.193    l7.46,16.788l-11.28,22.559l1.372-11.659c0.101-0.858-0.071-1.728-0.491-2.486l-9.344-16.821l9.545-22.911    c0.87-2.089-0.103-4.489-2.182-5.379l-11.115-4.765l12.058-42.873c0.473-1.678-0.159-3.471-1.579-4.481    c-11.2-7.962-24.403-12.171-38.185-12.171C26.505,12.333,0,38.838,0,78.29c0,31.983,53.68,83.447,70.132,98.458    c9.064,8.27,30.392,27.052,37.931,27.827v0.008c0.105,0.01,0.212,0.016,0.324,0.016c0.042,0,0.093,0,0.137,0    c0.109,0,0.215-0.004,0.318-0.014v-0.012c6.888-0.725,25.796-17.02,36.736-26.938c16.738-15.175,71.353-67.186,71.353-99.344    C216.93,38.838,190.425,12.333,150.973,12.333z M108.433,196.305C97.856,192.66,8.252,114.677,8.252,78.29    c0-39.863,28.981-57.705,57.705-57.705c11.093,0,21.755,3.115,31.014,9.034L84.74,73.106c-0.562,1.995,0.441,4.094,2.345,4.91    l10.688,4.582l-8.744,20.985c-0.486,1.164-0.411,2.488,0.201,3.592l9.669,17.403l-3.971,33.75c-0.234,1.99,0.995,3.86,2.917,4.434    c1.91,0.574,3.973-0.314,4.872-2.107l22.694-45.387c0.55-1.102,0.58-2.396,0.078-3.522l-7.253-16.323l19.131-24.871    c0.802-1.043,1.06-2.406,0.691-3.669c-0.367-1.263-1.314-2.277-2.551-2.726l-18.06-6.566l20.651-35.565    c4.201-0.957,8.522-1.441,12.874-1.441c28.723,0,57.705,17.842,57.705,57.705C208.678,115.215,119.163,192.407,108.433,196.305z" data-original="#000000" class="active-path" data-old_color="#FCFAFA" fill="#FCFBFB"/>
	</g>
</g></g> </svg>
